<svg xmlns="http://www.w3.org/2000/svg" viewBox="0 0 24 24" fill="currentColor" aria-hidden="true">
  <!-- Threads logo (monochrome). Replace this file with the official SVG from Meta brand resources if desired. -->
  <path d="M12 2C6.49 2 2 6.26 2 11.98 2 17.74 6.1 22 12 22c1.95 0 3.55-.38 4.92-1.11.32-.17.45-.56.3-.89l-.61-1.32c-.16-.34-.56-.49-.9-.33-1.1.52-2.32.78-3.71.78-4.56 0-7.49-3.12-7.49-7.15 0-4.06 2.99-7.15 7.2-7.15 3.9 0 6.57 2.5 6.98 6.06-.52-.44-1.3-.86-2.45-1.07-1.16-.22-2.44-.18-3.7.12-1.06.25-2.04.76-2.73 1.57-.75.88-1.08 2.01-.86 3.14.22 1.12.9 2.02 1.87 2.58 1.12.66 2.58.78 4.2.47 1.21-.23 2.16-.67 2.88-1.29-.68 2.41-2.72 3.93-5.61 3.93-1.43 0-2.73-.38-3.76-1.1-.3-.21-.71-.14-.93.15l-.9 1.18c-.22.29-.16.71.12.93 1.43 1.1 3.27 1.7 5.32 1.7 5.26 0 8.39-3.46 8.39-8.03C21.98 6.26 17.57 2 12 2zm3.94 9.79c.07.92-.21 1.72-.79 2.24-.58.52-1.4.87-2.48 1.07-1.12.2-2.04.14-2.68-.24-.4-.24-.67-.6-.76-1.05-.1-.47.02-.97.34-1.35.36-.42.94-.65 1.53-.79.92-.21 1.89-.24 2.75-.08 1.16.22 1.9.66 2.09 1.2z"/>
</svg>

